<svg width="92" height="18" viewBox="0 0 81 16" fill="none" xmlns="http://www.w3.org/2000/svg">
<path d="M9.3042 0.0419922V2.11126C9.30448 2.19756 9.33364 2.28133 9.38712 2.34947C9.4406 2.41761 9.51538 2.46627 9.59977 2.48785C10.8272 2.81076 11.9124 3.52632 12.6866 4.52322C13.4608 5.52012 13.8805 6.74245 13.8805 8.00004C13.8805 9.25763 13.4608 10.48 12.6866 11.4769C11.9124 12.4738 10.8272 13.1893 9.59977 13.5122C9.51538 13.5338 9.4406 13.5825 9.38712 13.6506C9.33364 13.7188 9.30448 13.8025 9.3042 13.8888V15.9581C11.2327 15.6768 12.9948 14.7182 14.2688 13.2572C15.5428 11.7962 16.2437 9.93033 16.2437 8.00004C16.2437 6.06976 15.5428 4.20383 14.2688 2.74285C12.9948 1.28187 11.2327 0.32326 9.3042 0.0419922Z" fill="white"/>
<path d="M6.93953 13.8883C6.93925 13.802 6.91009 13.7183 6.85661 13.6501C6.80313 13.582 6.72835 13.5333 6.64397 13.5118C5.41656 13.1888 4.33135 12.4733 3.55716 11.4764C2.78297 10.4795 2.36323 9.25714 2.36323 7.99955C2.36323 6.74197 2.78297 5.51964 3.55716 4.52274C4.33135 3.52584 5.41656 2.81027 6.64397 2.48736C6.72835 2.46578 6.80313 2.41712 6.85661 2.34898C6.91009 2.28084 6.93925 2.19707 6.93953 2.11077V0.0415039C5.01103 0.322772 3.24896 1.28138 1.97497 2.74236C0.70097 4.20334 0 6.06927 0 7.99955C0 9.92984 0.70097 11.7958 1.97497 13.2567C3.24896 14.7177 5.01103 15.6763 6.93953 15.9576V13.8883Z" fill="white"/>
<path d="M50.4294 13.8888C50.4291 13.8025 50.4 13.7188 50.3465 13.6506C50.293 13.5825 50.2182 13.5338 50.1338 13.5122C48.9064 13.1893 47.8212 12.4738 47.047 11.4769C46.2728 10.48 45.8531 9.25763 45.8531 8.00004C45.8531 6.74245 46.2728 5.52012 47.047 4.52322C47.8212 3.52632 48.9064 2.81076 50.1338 2.48785C50.2182 2.46627 50.293 2.41761 50.3465 2.34947C50.4 2.28133 50.4291 2.19756 50.4294 2.11126V0.0419922C48.5009 0.32326 46.7388 1.28187 45.4648 2.74285C44.1908 4.20383 43.4899 6.06976 43.4899 8.00004C43.4899 9.93033 44.1908 11.7962 45.4648 13.2572C46.7388 14.7182 48.5009 15.6768 50.4294 15.9581V13.8888Z" fill="white"/>
<path d="M52.7939 0.0419922V2.11126C52.7942 2.19756 52.8234 2.28133 52.8769 2.34947C52.9303 2.41761 53.0051 2.46627 53.0895 2.48785C54.3169 2.81076 55.4021 3.52632 56.1763 4.52322C56.9505 5.52012 57.3703 6.74245 57.3703 8.00004C57.3703 9.25763 56.9505 10.48 56.1763 11.4769C55.4021 12.4738 54.3169 13.1893 53.0895 13.5122C53.0051 13.5338 52.9303 13.5825 52.8769 13.6506C52.8234 13.7188 52.7942 13.8025 52.7939 13.8888V15.9581C54.7225 15.6768 56.4845 14.7182 57.7585 13.2572C59.0325 11.7962 59.7335 9.93033 59.7335 8.00004C59.7335 6.06976 59.0325 4.20383 57.7585 2.74285C56.4845 1.28187 54.7225 0.32326 52.7939 0.0419922Z" fill="white"/>
<path d="M68.3034 2.98049V10.9698C68.3003 11.7857 68.5154 12.5878 68.927 13.2947C69.3385 14.0016 69.9317 14.5879 70.6462 14.9941L70.6729 15.0098C71.5393 15.4939 72.4885 15.8154 73.4729 15.958C73.4729 15.958 73.4729 14.4341 73.4729 13.8702C73.4726 13.7937 73.4478 13.7193 73.4022 13.6576C73.3565 13.5959 73.2923 13.5501 73.2187 13.5268C71.3359 12.9844 70.6679 11.959 70.6679 10.2439V0H68.3034V2.98049Z" fill="white"/>
<path d="M80.9961 2.98049V10.9698C80.9996 11.785 80.7852 12.5867 80.3748 13.2935C79.9644 14.0003 79.3725 14.587 78.6591 14.9941L78.6316 15.0098C77.7651 15.4939 76.8159 15.8154 75.8315 15.958C75.8315 15.958 75.8315 14.4341 75.8315 13.8702C75.832 13.7938 75.8568 13.7194 75.9024 13.6577C75.9481 13.5961 76.0122 13.5503 76.0857 13.5268C77.9646 12.9844 78.6355 11.959 78.6355 10.2439V0H81.0001L80.9961 2.98049Z" fill="white"/>
<path d="M29.3988 16H29.5958C30.108 15.9999 30.6073 15.8416 31.0244 15.5473C31.4415 15.2531 31.7556 14.8373 31.9229 14.358L36.9368 0H34.4353L29.0264 15.482C29.0058 15.5408 28.9997 15.6036 29.0086 15.6652C29.0176 15.7268 29.0412 15.7854 29.0777 15.8361C29.1141 15.8868 29.1623 15.9281 29.2181 15.9566C29.274 15.9851 29.3359 16 29.3988 16Z" fill="white"/>
<path d="M27.6905 12.719L28.8067 9.52586C28.8355 9.44337 28.8355 9.35372 28.8067 9.27123L25.583 0.00292969H23.0796L27.5023 12.721C27.5087 12.7408 27.5214 12.7581 27.5385 12.7702C27.5555 12.7824 27.5761 12.7889 27.5971 12.7886C27.6181 12.7884 27.6385 12.7815 27.6553 12.769C27.6721 12.7565 27.6844 12.739 27.6905 12.719Z" fill="white"/>
</svg>
