<svg width="24" height="24" viewBox="0 0 24 24" fill="none" xmlns="http://www.w3.org/2000/svg">
<path d="M10.2277 10.0578V9.34592C9.98605 9.31334 9.74032 9.29297 9.48654 9.29297C6.46129 9.28896 4 11.7745 4 14.8337C4 16.7091 4.92651 18.3689 6.34447 19.3737C5.43005 18.3852 4.87011 17.0549 4.87011 15.5985C4.87011 12.5841 7.26292 10.1269 10.2277 10.0578Z" fill="#25F4EE"/>
<path d="M10.3603 18.1286C11.7098 18.1286 12.8136 17.0424 12.8619 15.6918L12.866 3.6218H15.0493C15.005 3.37364 14.9808 3.11735 14.9808 2.85699H11.9999L11.9958 14.927C11.9475 16.2776 10.8437 17.3638 9.49425 17.3638C9.07531 17.3638 8.68054 17.258 8.33008 17.0709C8.78125 17.7095 9.52246 18.1286 10.3603 18.1286Z" fill="#25F4EE"/>
<path d="M19.13 7.71828V7.04708C18.2962 7.04708 17.5227 6.79891 16.8701 6.36768C17.4502 7.03894 18.2357 7.52713 19.13 7.71828Z" fill="#25F4EE"/>
<path d="M16.8704 6.3669C16.2339 5.6306 15.8513 4.67053 15.8513 3.62097H15.0537C15.2591 4.76817 15.9359 5.75266 16.8704 6.3669Z" fill="#FE2C55"/>
<path d="M9.49095 12.2986C8.10924 12.2986 6.98535 13.4336 6.98535 14.8289C6.98535 15.8012 7.5332 16.6474 8.3308 17.0704C8.03271 16.6555 7.85546 16.147 7.85546 15.5937C7.85546 14.1984 8.97935 13.0634 10.3611 13.0634C10.6189 13.0634 10.8686 13.1081 11.1023 13.1813V10.1059C10.8605 10.0733 10.6149 10.053 10.3611 10.053C10.3168 10.053 10.2765 10.0571 10.2322 10.0571V12.4165C9.99449 12.3433 9.74876 12.2986 9.49095 12.2986Z" fill="#FE2C55"/>
<path d="M19.1296 7.71869V10.0578C17.5827 10.0578 16.1486 9.55748 14.9804 8.71129V14.8338C14.9804 17.8889 12.5192 20.3786 9.48985 20.3786C8.32164 20.3786 7.234 20.0043 6.34375 19.3738C7.34679 20.4599 8.77684 21.1434 10.36 21.1434C13.3852 21.1434 15.8505 18.6578 15.8505 15.5986V9.47609C17.0187 10.3223 18.4528 10.8226 19.9997 10.8226V7.81229C19.6975 7.81229 19.4075 7.77971 19.1296 7.71869Z" fill="#FE2C55"/>
<path d="M14.9811 14.8326V8.71011C16.1494 9.5563 17.5834 10.0566 19.1303 10.0566V7.71751C18.236 7.52635 17.4505 7.03816 16.8704 6.3669C15.9358 5.75266 15.2631 4.76817 15.0496 3.62097H12.8663L12.8622 15.6909C12.8139 17.0415 11.7101 18.1277 10.3607 18.1277C9.5228 18.1277 8.78562 17.7087 8.3264 17.0741C7.52879 16.6469 6.98094 15.8049 6.98094 14.8326C6.98094 13.4373 8.10484 12.3022 9.48654 12.3022C9.74435 12.3022 9.99411 12.347 10.2278 12.4202V10.0607C7.26293 10.1258 4.87012 12.5829 4.87012 15.5974C4.87012 17.0537 5.43005 18.38 6.34447 19.3726C7.23472 20.0031 8.32237 20.3774 9.49057 20.3774C12.5158 20.3774 14.9811 17.8877 14.9811 14.8326Z" fill="black"/>
</svg>
